<?xml version="1.0" encoding="utf-8"?>

<svg version="1.1" xmlns="http://www.w3.org/2000/svg" xmlns:xlink="http://www.w3.org/1999/xlink">
    <symbol id="guidedogs" viewBox="0 0 32 32">
        <path d="M24.718 14.461c0 0 2.565-0.718 3.898-0.718 2.871 0 2.154-3.898 2.154-3.898s-2.769 0-3.794 0-1.129-2.462-1.129-2.462h-5.129l-5.127 5.308 5.435 5.359 3.692-3.59zM0 32h15.956l-0.020-5.538 1.769-3.077c0 0 0 5.626 0 8.615h3.218v-12.769l-11.59-11.538-5.025 5.026 5.877 5.877c-1.515 1.436-3.186 2.991-4.441 4.071-5.538 4.923-5.744 9.333-5.744 9.333zM6.871 12.717l2.462-2.462 4.718 4.615c0 0-1.089 1.068-2.554 2.471l-4.625-4.625z"></path>
    </symbol>
    <symbol id="toilets" viewBox="0 0 32 32">
        <path d="M6.208 3.006c1.518-0.479 3.201 1.271 2.508 2.752-0.437 1.489-2.642 1.878-3.573 0.651-1.021-1.084-0.402-3.107 1.065-3.403v0zM2.866 7.913c1.382-0.546 2.9-0.286 4.35-0.345 1.252 0.022 2.695-0.169 3.727 0.702 0.784 0.619 0.816 1.705 0.825 2.62-0.012 2.006 0.011 4.016-0.007 6.025 0.018 0.452-0.165 1.146-0.722 1.124-0.659 0.163-1.098-0.548-1.076-1.124-0.011-1.951 0.005-3.899-0.004-5.849-0.164 0.001-0.49 0.006-0.652 0.010-0.028 5.589 0.015 11.18-0.023 16.766 0.144 1.341-2.205 1.645-2.319 0.263-0.049-3.358-0.004-6.721-0.019-10.078-0.138 0-0.411 0-0.55 0 0.005 2.929-0.006 5.857 0.006 8.789 0.004 0.633-0.052 1.287-0.293 1.882-0.762 0.628-2.209 0.315-2.161-0.828-0.048-5.588 0.011-11.18-0.027-16.769-0.133 0-0.395 0-0.526 0-0.033 1.854 0.004 3.707-0.014 5.559 0 0.608-0.302 1.559-1.079 1.378-0.457 0.041-0.754-0.486-0.715-0.891-0.023-2.35-0.014-4.702-0.002-7.051-0.027-0.892 0.413-1.844 1.283-2.183v0zM24.679 3.3c1.339-0.287 2.746 0.98 2.457 2.362-0.122 1.785-2.743 2.322-3.714 0.901-0.964-1.148-0.139-2.965 1.258-3.263v0zM21.844 8.717c1.025-0.983 2.553-0.604 3.829-0.683 1.053-0.075 2.327 0.070 2.948 1.050 0.755 1.258 0.947 2.751 1.435 4.119 0.29 1.178 0.924 2.341 0.644 3.582-0.54 0.187-1.218 0.161-1.482-0.434-0.609-1.653-1.029-3.372-1.601-5.041-0.070-0.286-0.314-0.459-0.514-0.65 0.774 3.319 1.873 6.556 2.764 9.845-0.814 0.006-1.628 0.011-2.441 0-0.065 2.351 0.022 4.706-0.039 7.052 0.017 0.538-0.337 1.143-0.929 1.122-0.583 0.044-1.013-0.541-0.945-1.088-0.028-2.364 0.026-4.731-0.022-7.095-0.142 0.002-0.428 0.010-0.57 0.017-0.048 2.442 0.049 4.891-0.047 7.332-0.079 1.102-1.735 1.071-1.839-0.001-0.050-2.443 0.004-4.891-0.026-7.334-0.821 0.005-1.639 0.004-2.457-0.011 0.774-3.232 1.675-6.434 2.436-9.666-0.090 0.064-0.276 0.185-0.368 0.245-0.607 1.733-0.976 3.545-1.57 5.279-0.191 0.788-1.605 0.741-1.62-0.126 0.118-1.333 0.674-2.593 1.003-3.889 0.417-1.22 0.53-2.62 1.412-3.623v0zM15.311 2.679h0.848v27.065h-0.848v-27.065z"></path>
    </symbol>
</svg>